<svg width="560" height="475" viewBox="0 0 560 475" fill="none" xmlns="http://www.w3.org/2000/svg">
<path d="M293.945 135.978C293.945 135.978 289.418 204.958 334.735 250.789C334.735 250.789 344.715 262.391 365.485 271.962C365.485 271.962 373.04 274.571 372.231 285.303C372.231 285.303 370.614 295.166 358.202 300.675C358.202 300.675 293.997 327.629 294.262 441.049C294.262 441.049 380.071 470.757 475.834 442.906C475.834 442.906 480.666 338.668 415.116 301.538C415.116 301.538 398.932 294.867 398.661 285.296C398.661 285.296 396.772 274.564 406.753 271.371C406.753 271.371 439.65 258.155 459.754 213.645C464.689 202.718 468.202 191.109 470.375 179.194C472.302 168.642 475.097 151.28 475.485 137.501L456.927 126.622L311.261 135.908L296.158 132.138L293.945 135.971V135.978Z" fill="#03DAC6"/>
<path d="M389.424 455.204C374.185 455.204 360.511 454.182 349.107 452.839C316.028 448.937 294.373 441.522 294.159 441.452L293.894 441.362V441.063C293.752 382.35 311.19 347.216 325.847 328.081C341.746 307.325 357.911 300.369 358.072 300.307C370.116 294.958 371.85 285.338 371.863 285.241C372.633 275.016 365.673 272.463 365.375 272.359C344.735 262.85 334.56 251.185 334.463 251.074C311.003 227.348 301.125 197.306 296.979 176.286C292.49 153.52 293.558 136.131 293.57 135.957V135.852L295.983 131.686L311.3 135.512L457.018 126.226L475.873 137.278V137.529C475.492 150.96 472.878 167.654 470.75 179.284C468.519 191.498 464.935 203.128 460.097 213.84C440.162 257.988 407.219 271.635 406.889 271.767C397.322 274.828 399.017 285.129 399.036 285.234C399.301 294.485 415.097 301.107 415.252 301.176C449.282 320.451 464.036 357.977 470.427 386.064C477.348 416.468 476.229 442.677 476.216 442.941L476.203 443.24L475.938 443.317C444.916 452.338 414.968 455.211 389.418 455.211L389.424 455.204ZM294.651 440.757C297.212 441.605 318.163 448.366 349.211 452.025C379.612 455.614 426.177 456.88 475.479 442.6C475.582 439.623 476.197 414.791 469.696 386.231C463.338 358.311 448.68 321.014 414.955 301.907C414.327 301.649 398.57 295.048 398.299 285.31C398.286 285.262 396.468 274.244 406.662 270.981C406.966 270.856 439.631 257.306 459.431 213.471C464.237 202.822 467.801 191.262 470.019 179.117C472.128 167.584 474.709 151.078 475.11 137.744L456.856 127.039L311.242 136.318L311.19 136.305L296.352 132.597L294.334 136.096C294.256 137.543 293.441 154.362 297.736 176.126C301.863 197.021 311.675 226.882 335.006 250.483C335.123 250.615 345.2 262.155 365.647 271.58C365.692 271.594 373.441 274.404 372.62 285.331C372.6 285.47 370.815 295.514 358.357 301.051C358.189 301.121 342.18 308.014 326.404 328.631C311.869 347.627 294.573 382.496 294.651 440.75V440.757Z" fill="#002346"/>
<path d="M472.095 440.91L471.546 441.578C437.975 451.079 396.992 451.051 396.992 451.051C351.125 452.429 316.242 445.876 299.366 441.327C300.634 435.596 307.626 410.715 336.351 394.383L354.534 383.421C357.561 381.598 360.64 379.894 363.751 378.246C369.54 375.178 381.985 366.609 380.317 350.284L382.742 290.527C382.742 290.527 382.471 277.763 373.033 272.832C373.033 272.832 333.111 254.559 323.395 225.261L375.187 227.87L452.878 211.628C452.878 211.628 446.675 251.081 405.129 267.323C405.129 267.323 387.593 271.677 385.976 293.72L385.705 350.868C385.705 350.868 383.279 369.141 404.586 378.134C404.586 378.134 446.992 397.11 472.082 440.91H472.095Z" fill="#BB86FC"/>
<path d="M384.418 451.65C341.132 451.65 310.905 444.854 299.275 441.724L298.913 441.626L298.997 441.237C300.097 436.257 307.05 410.59 336.177 394.021L354.353 383.066C357.063 381.431 359.993 379.79 363.59 377.884C369.055 374.984 381.597 366.498 379.948 350.332L382.374 290.513C382.374 290.416 381.992 277.965 372.878 273.2C372.497 273.026 332.71 254.524 323.053 225.394L322.865 224.823L375.181 227.459L453.363 211.113L453.273 211.698C453.208 212.094 446.552 251.568 405.284 267.712C405.064 267.768 387.956 272.282 386.378 293.761L386.106 350.875C386.08 351.111 383.984 369.002 404.747 377.759C405.181 377.954 447.561 397.291 472.425 440.701L472.574 440.959L471.766 441.939L471.656 441.974C438.467 451.364 397.535 451.462 397.005 451.462C392.704 451.594 388.506 451.65 384.431 451.65H384.418ZM299.825 441.028C312.813 444.499 347.535 452.13 396.986 450.641C397.445 450.641 438.24 450.551 471.345 441.209L471.63 440.861C446.876 397.861 404.883 378.691 404.463 378.503C383.124 369.502 385.323 350.986 385.349 350.798L385.614 293.706C387.238 271.587 404.883 266.954 405.064 266.912C443.117 252.027 451.416 217.088 452.412 212.129L375.233 228.266H375.187L323.965 225.679C333.835 254.142 372.801 272.261 373.195 272.442C382.749 277.436 383.137 290.374 383.137 290.506L380.711 350.291C382.406 366.908 369.541 375.623 363.933 378.6C360.356 380.499 357.432 382.141 354.735 383.762L336.552 394.724C308.402 410.729 301.177 435.269 299.838 441.014L299.825 441.028Z" fill="#002346"/>
<path d="M328.777 217.45C331.662 216.921 335.873 217.471 342.018 220.33C342.018 220.33 365.757 227.87 395.97 214.821C395.97 214.821 439.67 195.679 452.62 204.088C452.62 204.088 465.834 216.275 416.475 227.877C416.475 227.877 341.695 245.009 325.614 230.624C321.015 226.506 322.878 218.535 328.777 217.457V217.45Z" fill="#BB86FC"/>
<path d="M351.973 236.822C340.272 236.822 330.239 235.292 325.369 230.937C323.092 228.899 322.154 225.741 322.911 222.702C323.655 219.739 325.873 217.568 328.713 217.054C332.148 216.428 336.675 217.408 342.174 219.961C342.368 220.017 366.1 227.292 395.835 214.445C397.626 213.659 439.858 195.317 452.82 203.74C452.969 203.873 455.239 206.008 454.444 209.409C453.318 214.223 445.828 221.401 416.559 228.28C414.424 228.767 378.816 236.829 351.973 236.829V236.822ZM328.842 217.854C326.261 218.327 324.321 220.212 323.648 222.91C322.963 225.644 323.81 228.475 325.854 230.304C341.611 244.404 415.647 227.647 416.391 227.473C445.259 220.691 452.613 213.798 453.7 209.215C454.386 206.314 452.452 204.471 452.368 204.394C439.78 196.221 396.546 215.002 396.113 215.196C366.126 228.155 342.148 220.796 341.908 220.719C336.507 218.208 332.122 217.248 328.836 217.847L328.842 217.854Z" fill="#002346"/>
<path d="M477.846 119.458V135.414C477.846 136.068 477.458 136.645 476.889 136.854C466.443 140.68 372.594 173.1 291.759 135.157C291.242 134.913 290.912 134.364 290.912 133.759V119.458" fill="white"/>
<path d="M379.961 153.798C351.843 153.798 320.873 149.27 291.604 135.532C290.951 135.226 290.524 134.531 290.524 133.759V119.458H291.281V133.759C291.281 134.204 291.527 134.607 291.902 134.781C372.581 172.648 466.332 140.283 476.759 136.465C477.18 136.311 477.458 135.887 477.458 135.407V119.451H478.215V135.407C478.215 136.235 477.723 136.972 476.999 137.237C470.323 139.678 429.592 153.791 379.955 153.791L379.961 153.798Z" fill="#002346"/>
<path d="M384.373 138.384C435.993 138.384 477.84 129.911 477.84 119.458C477.84 109.005 435.993 100.531 384.373 100.531C332.752 100.531 290.906 109.005 290.906 119.458C290.906 129.911 332.752 138.384 384.373 138.384Z" fill="white"/>
<path d="M384.373 138.795C331.746 138.795 290.524 130.302 290.524 119.458C290.524 108.614 331.746 100.121 384.373 100.121C436.999 100.121 478.221 108.614 478.221 119.458C478.221 130.302 436.999 138.795 384.373 138.795ZM384.373 100.942C359.431 100.942 335.983 102.91 318.351 106.478C301.151 109.963 291.281 114.693 291.281 119.458C291.281 124.222 301.145 128.959 318.351 132.437C335.983 136.005 359.431 137.974 384.373 137.974C409.314 137.974 432.762 136.005 450.395 132.437C467.594 128.952 477.464 124.222 477.464 119.458C477.464 114.693 467.6 109.956 450.395 106.478C432.762 102.91 409.314 100.942 384.373 100.942Z" fill="#002346"/>
<path d="M489.683 440.597H279.573V461.979H489.683V440.597Z" fill="white"/>
<path d="M490.058 462.389H279.191V440.187H490.058V462.389ZM279.948 461.575H489.295V441.007H279.948V461.575Z" fill="#002346"/>
<path d="M200.795 426.998L199.754 440.173L211.267 443.525L218.9 425.844L200.795 426.998Z" fill="#F2B3C1"/>
<path d="M211.449 443.943L199.411 440.43L200.491 426.672L219.418 425.461L211.442 443.943H211.449ZM200.103 439.915L211.093 443.122L218.383 426.233L201.099 427.339L200.11 439.915H200.103Z" fill="#002346"/>
<path d="M257.277 430.337L258.169 443.511L270.026 444.896L273.182 424.919L257.277 430.337Z" fill="#F2B3C1"/>
<path d="M270.291 445.278L257.866 443.824L256.934 430.087L273.59 424.411L270.291 445.271V445.278ZM258.467 443.198L269.754 444.513L272.768 425.42L257.613 430.581L258.467 443.191V443.198Z" fill="#002346"/>
<path d="M236.54 213.555L239.916 287.717L251.624 426.526C251.779 428.39 253.098 429.892 254.819 430.184C259.418 430.956 268.428 431.986 274.593 429.621C274.593 429.621 277.044 425.329 274.593 418.067C274.593 418.067 272.29 409.72 274.593 402.563C277.71 393.576 277.458 383.636 273.9 374.844C273.9 374.844 269.528 361.976 273.441 350.84C273.441 350.84 280.524 328.067 276.753 313.467C276.753 313.467 276.203 300.599 278.965 295.382C278.965 295.382 310.013 244.897 310.013 230.047C310.013 230.047 313.008 208.929 309.437 206.87L236.54 213.562V213.555Z" fill="#BB86FC"/>
<path d="M264.884 431.429C261.029 431.429 257.309 430.949 254.767 430.525C252.898 430.212 251.468 428.577 251.3 426.553L239.593 287.745L236.197 213.235L309.502 206.509L309.586 206.557C313.254 208.672 310.64 227.905 310.33 230.096C310.33 244.828 280.505 293.504 279.23 295.57C276.63 300.481 277.038 312.625 277.07 313.411C280.802 327.949 273.816 350.722 273.745 350.951C269.916 361.844 274.159 374.601 274.205 374.726C277.807 383.629 278.06 393.569 274.897 402.688C272.659 409.644 274.884 417.886 274.903 417.97C277.374 425.287 274.974 429.621 274.871 429.802L274.813 429.906L274.703 429.948C271.798 431.061 268.286 431.436 264.884 431.436V431.429ZM236.882 213.875L240.246 287.703L251.954 426.498C252.096 428.202 253.299 429.579 254.877 429.843C259.573 430.629 268.325 431.603 274.379 429.336C274.716 428.647 276.456 424.578 274.302 418.186C274.198 417.817 271.992 409.63 274.302 402.452C277.406 393.493 277.167 383.741 273.622 374.984C273.571 374.837 269.243 361.844 273.157 350.715C273.221 350.499 280.162 327.886 276.462 313.557L276.449 313.481C276.423 312.952 275.925 300.453 278.7 295.208C279.023 294.687 309.703 244.619 309.703 230.047C310.524 224.246 312.031 209.061 309.373 207.225L236.889 213.882L236.882 213.875Z" fill="#002346"/>
<path d="M196.546 430.108L217.29 431.068C217.29 431.068 220.738 430.762 222.348 423.089C222.348 423.089 226.954 413.929 230.175 411.452C230.175 411.452 245.201 396.018 247.93 382.697L239.916 287.717L195.168 427.938C194.89 428.793 195.311 429.725 196.106 430.017C196.249 430.073 196.397 430.101 196.546 430.108Z" fill="#BB86FC"/>
<path d="M217.316 431.415L196.533 430.455C196.352 430.449 196.171 430.414 195.996 430.344C195.531 430.17 195.155 429.816 194.942 429.336C194.729 428.856 194.696 428.32 194.858 427.819L240.097 286.061L248.254 382.718L248.241 382.774C245.524 396.045 230.544 411.55 230.395 411.703C227.348 414.054 222.989 422.54 222.652 423.215C221.003 430.998 217.465 431.401 217.316 431.415ZM239.729 289.372L195.472 428.056C195.369 428.383 195.388 428.73 195.524 429.043C195.666 429.35 195.906 429.586 196.21 429.697C196.32 429.739 196.443 429.76 196.559 429.767L217.303 430.727C217.303 430.727 220.505 430.302 222.031 423.02L222.064 422.929C222.251 422.554 226.74 413.671 229.987 411.174C230.104 411.049 244.897 395.732 247.607 382.677L239.735 289.372H239.729Z" fill="#002346"/>
<path d="M298.525 59.1098L300.828 72.903L281.953 82.5576L280.258 71.9153L296.862 56.0702L298.525 59.1098Z" fill="#F2B3C1"/>
<path d="M281.707 83.0723L279.909 71.7901L296.94 55.5346L298.842 59.0542L301.19 73.1117L281.707 83.0793V83.0723ZM280.608 72.0475L282.199 82.0498L300.465 72.7083L298.214 59.235L296.779 56.6127L280.601 72.0475H280.608Z" fill="#002346"/>
<path d="M305.557 81.7785C305.557 81.7785 328.901 84.7834 328.597 117.121C328.597 117.121 321.313 207.545 309.457 206.85C309.457 206.85 250.97 211.962 237.09 215.509C225.802 218.396 231.326 188.382 231.326 188.382C231.326 188.382 220.582 183.103 217.212 179.472C217.212 179.472 223.681 164.955 226.721 164.294L234.088 168.586C234.088 168.586 232.872 93.7354 277.665 84.1435L305.557 81.7785Z" fill="#03DAC6"/>
<path d="M235.641 216.052C234.399 216.052 233.338 215.6 232.471 214.703C227.49 209.548 230.511 191.15 230.964 188.584C229.34 187.777 220.123 183.096 216.986 179.715L216.824 179.541L216.921 179.319C217.594 177.816 223.551 164.628 226.656 163.954L226.772 163.926L233.765 167.995C233.765 164.649 234.043 147.628 238.771 129.864C243.629 111.605 254.308 88.7899 277.607 83.8027L305.569 81.4308H305.602C305.841 81.4655 329.23 84.853 328.926 117.128C328.629 120.842 321.533 207.204 309.593 207.204C309.541 207.204 309.496 207.204 309.45 207.204C308.907 207.253 250.873 212.352 237.174 215.857C236.637 215.996 236.132 216.059 235.647 216.059L235.641 216.052ZM217.607 179.395C221.074 182.936 231.359 188.013 231.462 188.062L231.695 188.173L231.643 188.445C231.604 188.653 227.924 209.027 232.917 214.195C233.972 215.287 235.311 215.6 237.012 215.169C250.757 211.656 308.842 206.55 309.431 206.502C309.47 206.502 309.515 206.502 309.554 206.502C318.668 206.502 325.776 148.101 328.273 117.086C328.564 86.0007 306.494 82.2654 305.543 82.1263L277.684 84.4913C254.748 89.409 244.198 111.973 239.386 130.044C234.159 149.68 234.399 168.391 234.405 168.579V169.177L226.669 164.663C224.302 165.442 219.431 175.312 217.594 179.395H217.607Z" fill="#002346"/>
<path d="M171.798 99.6478L177.012 155.071H177.937C177.937 155.071 177.167 160.636 182.846 161.067C187.956 161.463 251.533 165.783 264.14 166.632C265.53 166.722 266.902 166.242 267.975 165.282L273.047 160.754C273.247 160.58 273.273 160.26 273.111 160.051C273.034 159.954 272.93 159.891 272.807 159.871L250.22 156.88L247.115 103.265C247.038 101.846 245.983 100.719 244.664 100.649L174.515 96.5734C173.085 96.4899 171.869 97.6654 171.785 99.1957C171.779 99.3487 171.785 99.4948 171.798 99.6478Z" fill="#BB86FC"/>
<path d="M264.476 166.993C264.36 166.993 264.237 166.993 264.12 166.979C252.516 166.2 188.014 161.818 182.82 161.415C180.97 161.276 179.573 160.594 178.674 159.384C177.607 157.951 177.549 156.198 177.581 155.419H176.714L176.688 155.106L171.475 99.6826C171.455 99.5157 171.455 99.3418 171.462 99.1748C171.552 97.4498 172.911 96.1282 174.528 96.2256L244.677 100.302C246.158 100.385 247.348 101.651 247.432 103.244L250.517 156.567L272.84 159.523C273.04 159.551 273.221 159.655 273.351 159.822C273.486 159.996 273.551 160.218 273.525 160.441C273.506 160.664 273.402 160.872 273.241 161.011L268.17 165.539C267.122 166.478 265.815 166.979 264.463 166.979L264.476 166.993ZM177.303 154.723H178.312L178.26 155.12C178.26 155.12 177.975 157.332 179.185 158.952C179.968 159.996 181.21 160.594 182.872 160.719C188.06 161.123 252.561 165.505 264.166 166.284C265.479 166.367 266.759 165.922 267.775 165.011L272.846 160.483C272.885 160.448 272.898 160.399 272.898 160.378C272.898 160.357 272.898 160.309 272.866 160.267C272.84 160.239 272.807 160.218 272.775 160.211L249.922 157.186L249.903 156.9L246.798 103.286C246.727 102.041 245.809 101.06 244.651 100.997L174.502 96.9212C173.26 96.8307 172.186 97.8741 172.115 99.2166C172.115 99.3487 172.115 99.4809 172.122 99.613L177.309 154.723H177.303Z" fill="#002346"/>
<path d="M209.385 133.293C211.8 133.293 213.758 131.188 213.758 128.591C213.758 125.994 211.8 123.889 209.385 123.889C206.97 123.889 205.013 125.994 205.013 128.591C205.013 131.188 206.97 133.293 209.385 133.293Z" fill="white"/>
<path d="M209.385 133.64C206.798 133.64 204.689 131.373 204.689 128.591C204.689 125.808 206.798 123.541 209.385 123.541C211.973 123.541 214.081 125.808 214.081 128.591C214.081 131.373 211.973 133.64 209.385 133.64ZM209.385 124.236C207.154 124.236 205.336 126.191 205.336 128.591C205.336 130.99 207.154 132.945 209.385 132.945C211.617 132.945 213.435 130.99 213.435 128.591C213.435 126.191 211.617 124.236 209.385 124.236Z" fill="#002346"/>
<path d="M213.331 441.286L199.237 435.895L195.893 451.246C195.893 451.246 185.479 447.337 182.303 452.22L208.053 462.09L213.338 441.279L213.331 441.286Z" fill="#03DAC6"/>
<path d="M208.266 462.549L181.792 452.401L182.037 452.025C185.026 447.434 193.79 450.154 195.66 450.801L199.004 435.443L213.726 441.07L208.266 462.549ZM182.833 452.06L207.826 461.638L212.943 441.501L199.469 436.354L196.125 451.705L195.782 451.58C195.685 451.545 186.119 448.019 182.826 452.06H182.833Z" fill="#002346"/>
<path d="M182.308 452.258L181.271 455.397L207.022 465.236L208.059 462.097L182.308 452.258Z" fill="white"/>
<path d="M207.212 465.652L206.908 465.533L180.854 455.58L182.109 451.782L182.413 451.9L208.467 461.854L207.212 465.652ZM181.675 455.155L206.818 464.761L207.639 462.278L182.497 452.672L181.675 455.155Z" fill="#002346"/>
<path d="M271.733 438.378L256.785 437.682L257.813 453.416C257.813 453.416 246.985 452.999 245.135 458.543C245.116 458.605 245.161 458.675 245.219 458.675L272.399 459.892L271.733 438.378Z" fill="#03DAC6"/>
<path d="M272.736 460.261L245.213 459.03C245.084 459.03 244.961 458.946 244.883 458.828C244.806 458.71 244.793 458.557 244.838 458.424C246.572 453.229 255.537 453.02 257.471 453.062L256.442 437.321L272.05 438.044L272.736 460.254V460.261ZM245.563 458.348L272.063 459.537L271.416 438.719L257.128 438.051L258.156 453.785L257.794 453.771C257.691 453.771 247.606 453.437 245.556 458.348H245.563Z" fill="#002346"/>
<path d="M245.108 458.7L244.981 462.029L272.287 463.234L272.414 459.905L245.108 458.7Z" fill="white"/>
<path d="M272.594 463.6L244.644 462.368L244.799 458.341L272.749 459.572L272.594 463.6ZM245.317 461.701L271.973 462.876L272.076 460.24L245.42 459.064L245.317 461.701Z" fill="#002346"/>
<path d="M290.544 89.5411L291.449 86.3971L285.459 79.664L300.828 72.0127C300.828 72.0127 301.889 71.5119 303.28 74.4611L306.255 79.6014C306.624 80.2344 306.462 81.0621 305.893 81.4864C303.137 83.5383 295.35 89.0542 290.544 89.5411Z" fill="#BB86FC"/>
<path d="M290.091 89.9376L291.087 86.4876L284.916 79.5527L300.692 71.6997C300.835 71.6301 302.083 71.1571 303.571 74.3081L306.533 79.4275C306.992 80.2205 306.792 81.2499 306.08 81.7785C303.021 84.0531 295.395 89.409 290.576 89.8959L290.091 89.9446V89.9376ZM286.003 79.7753L291.811 86.3067L290.996 89.1308C295.835 88.3308 303.435 82.8984 305.705 81.2012C306.132 80.8813 306.248 80.2622 305.977 79.7892L303.001 74.6489C301.792 72.0823 300.944 72.3327 300.938 72.3396L286.003 79.7753Z" fill="#002346"/>
<path d="M281.565 88.1987C284.269 89.9307 287.503 90.4176 290.543 89.5411L291.449 86.3972L285.459 79.664L282.122 85.6738L281.565 88.1987Z" fill="white"/>
<path d="M287.549 90.3132C285.401 90.3132 283.26 89.6942 281.397 88.4978L281.19 88.3656L281.837 85.4929L285.395 79.0936L291.811 86.3067L290.796 89.8263L290.621 89.875C289.612 90.1672 288.577 90.3063 287.542 90.3063L287.549 90.3132ZM281.934 88.0317C284.457 89.569 287.478 90.0141 290.285 89.256L291.08 86.4945L285.518 80.2413L282.426 85.8129L281.934 88.0317Z" fill="#002346"/>
<path d="M285.459 79.664L281.158 77.5355C279.787 79.6084 278.616 81.8272 277.665 84.1574L281.546 88.1987L282.102 85.6529L285.459 79.664Z" fill="#BB86FC"/>
<path d="M281.727 88.8734L277.277 84.2339L277.367 84.0113C278.331 81.6603 279.515 79.4136 280.893 77.3269L281.048 77.0904L285.925 79.504L282.406 85.7781L281.734 88.8664L281.727 88.8734ZM278.047 84.0739L281.358 87.524L281.824 85.472L284.994 79.817L281.268 77.9738C280.026 79.8866 278.946 81.9385 278.053 84.0809L278.047 84.0739Z" fill="#002346"/>
<path d="M298.596 41.5188C298.596 30.5704 290.343 21.6949 280.162 21.6949C269.981 21.6949 261.727 30.5704 261.727 41.5188V54.7347C261.727 65.6831 269.981 74.5585 280.162 74.5585C290.343 74.5585 298.596 65.6831 298.596 54.7347V41.5188Z" fill="#F2B3C1"/>
<path d="M280.162 74.9063C269.819 74.9063 261.404 65.8569 261.404 54.7346V41.5188C261.404 30.3965 269.819 21.3471 280.162 21.3471C290.505 21.3471 298.92 30.3965 298.92 41.5188V54.7346C298.92 65.8569 290.505 74.9063 280.162 74.9063ZM280.162 22.0427C270.175 22.0427 262.051 30.7791 262.051 41.5188V54.7346C262.051 65.4743 270.175 74.2107 280.162 74.2107C290.149 74.2107 298.273 65.4743 298.273 54.7346V41.5188C298.273 30.7791 290.149 22.0427 280.162 22.0427Z" fill="#002346"/>
<path d="M261.999 37.0254C261.999 37.0254 257.691 27.8647 261.999 21.681C261.999 21.681 279.463 2.42058 293.195 12.6803C295.065 14.0436 297.083 15.1426 299.211 15.9634C302.885 17.4311 308.305 21.0133 309.314 29.4923C309.722 33.1997 309.211 36.9558 307.833 40.385C305.382 46.6451 301.19 59.0889 298.273 59.6037C298.273 59.6037 296.197 55.4233 297.878 48.711C298.596 46.0469 297.846 43.1742 295.931 41.3101C295.64 41.0527 295.33 40.8232 295 40.6145C293.098 39.4529 291.772 37.4427 291.371 35.1334C290.951 32.2468 290.737 29.3254 290.724 26.4039C289.819 30.32 286.979 33.3806 283.338 34.3544C281.863 34.7787 280.317 34.8482 278.81 34.57C277.096 34.2361 275.336 34.3474 273.674 34.9039C271.585 36.2185 268.997 36.2185 266.908 34.9039C266.908 34.9039 264.825 34.0553 261.999 37.0254Z" fill="#002346"/>
<path d="M298.098 59.9862L297.988 59.7636C297.904 59.5898 295.873 55.3815 297.568 48.6136C298.254 46.0887 297.523 43.3203 295.718 41.5605C295.453 41.324 295.149 41.1014 294.838 40.9067C292.853 39.6894 291.475 37.6027 291.054 35.189C290.725 32.9284 290.524 30.64 290.44 28.3516C289.146 31.4816 286.578 33.8327 283.415 34.6813C281.889 35.1195 280.317 35.189 278.752 34.9039C277.109 34.5839 275.395 34.6882 273.803 35.2169C271.624 36.5732 268.92 36.5663 266.74 35.196C266.714 35.196 264.845 34.5074 262.219 37.2688L261.902 37.6027L261.701 37.1784C261.52 36.7958 257.355 27.7534 261.734 21.4723C261.941 21.2428 279.573 2.07976 293.377 12.3951C295.22 13.7376 297.219 14.8296 299.314 15.6365C302.717 16.9928 308.577 20.5959 309.631 29.4506C310.045 33.2206 309.521 37.0462 308.124 40.5241C307.749 41.4909 307.322 42.6039 306.876 43.8072C303.642 52.3836 300.77 59.5202 298.325 59.9515L298.098 59.9932V59.9862ZM291.035 23.6147L291.048 26.397C291.061 29.2906 291.274 32.212 291.688 35.0708C292.07 37.2758 293.338 39.1886 295.155 40.3015C295.498 40.5171 295.822 40.7606 296.132 41.0319C298.131 42.9795 298.933 46.0261 298.183 48.8014C296.785 54.3799 298.053 58.2056 298.448 59.1863C300.731 58.2403 304.056 49.4344 306.274 43.5359C306.727 42.3326 307.148 41.2127 307.529 40.2459C308.881 36.8793 309.386 33.1719 308.985 29.5271C308.027 21.4654 303.073 17.8762 299.088 16.2834C296.941 15.4556 294.89 14.3427 293.001 12.9655C279.651 2.99096 262.387 21.7297 262.219 21.9245C258.622 27.0856 261.333 34.5839 262.089 36.4411C264.864 33.7492 266.921 34.5422 267.005 34.5769C269.043 35.8498 271.507 35.8498 273.493 34.6048L273.558 34.57C275.265 33.9996 277.089 33.8814 278.849 34.2222C280.317 34.4935 281.792 34.4239 283.234 34.0135C286.772 33.0675 289.509 30.1183 290.388 26.3135L291.016 23.6147H291.035Z" fill="#002346"/>
<path d="M297.749 50.4986C300.003 50.4986 301.83 47.4343 301.83 43.6542C301.83 39.8741 300.003 36.8097 297.749 36.8097C295.495 36.8097 293.667 39.8741 293.667 43.6542C293.667 47.4343 295.495 50.4986 297.749 50.4986Z" fill="#F2B3C1"/>
<path d="M297.749 50.8464C295.324 50.8464 293.344 47.6189 293.344 43.6542C293.344 39.6894 295.324 36.4619 297.749 36.4619C300.175 36.4619 302.154 39.6894 302.154 43.6542C302.154 47.6189 300.181 50.8464 297.749 50.8464ZM297.749 37.1645C295.679 37.1645 293.991 40.0789 293.991 43.6611C293.991 47.2433 295.679 50.1578 297.749 50.1578C299.819 50.1578 301.507 47.2433 301.507 43.6611C301.507 40.0789 299.819 37.1645 297.749 37.1645Z" fill="#002346"/>
<path d="M257.406 192.841C245.957 192.841 238.079 189.342 237.988 189.3C237.827 189.224 237.749 189.022 237.814 188.841C237.885 188.667 238.073 188.577 238.241 188.653C238.338 188.695 248.027 193.001 261.52 191.985C273.965 191.053 292.303 185.287 308.959 163.084C309.101 162.882 323.862 141.375 325.77 127.707C325.796 127.519 325.964 127.387 326.139 127.415C326.313 127.443 326.436 127.617 326.41 127.812C324.483 141.647 309.618 163.293 309.47 163.508C292.652 185.927 274.12 191.749 261.54 192.681C260.123 192.785 258.739 192.834 257.413 192.834L257.406 192.841Z" fill="#002346"/>
<path d="M315.53 103.703C315.369 103.703 315.226 103.571 315.207 103.39C314.373 93.8467 308.616 89.1238 308.558 89.0821C308.415 88.9638 308.383 88.7482 308.493 88.5952C308.603 88.4421 308.803 88.4073 308.946 88.5256C309.004 88.5743 314.994 93.4781 315.854 103.327C315.873 103.522 315.737 103.689 315.563 103.703C315.55 103.703 315.543 103.703 315.53 103.703Z" fill="#002346"/>
<path d="M276.281 155.941C276.229 155.941 276.171 155.927 276.125 155.899C275.97 155.808 275.912 155.593 276.002 155.426C294.592 119.583 313.823 107.556 314.01 107.445C314.165 107.348 314.366 107.41 314.45 107.577C314.541 107.744 314.482 107.953 314.327 108.05C314.14 108.169 295.052 120.119 276.565 155.767C276.507 155.878 276.397 155.948 276.281 155.948V155.941Z" fill="#002346"/>
<path d="M247.93 172.029C242.691 172.029 238.008 170.304 237.691 170.186C237.523 170.123 237.432 169.922 237.49 169.741C237.549 169.56 237.736 169.462 237.904 169.525C238.034 169.574 250.757 174.255 257.646 168.19C257.781 168.071 257.988 168.092 258.098 168.238C258.208 168.384 258.189 168.607 258.053 168.725C255.181 171.25 251.43 172.022 247.93 172.022V172.029Z" fill="#002346"/>
<path d="M245.88 158.027H245.867L177.924 155.419C177.742 155.419 177.607 155.252 177.613 155.057C177.619 154.862 177.788 154.716 177.949 154.723L245.892 157.332C246.074 157.332 246.209 157.499 246.203 157.693C246.203 157.881 246.054 158.027 245.88 158.027Z" fill="#002346"/>
<path d="M216.041 173.233C213.318 172.801 204.955 170.061 197.833 152.922C197.665 152.546 197.581 152.136 197.574 151.718C197.574 151.106 197.788 150.494 198.868 151.259L204.586 160.35C204.586 160.35 199.146 150.87 197.684 145.848C197.516 145.257 197.826 144.637 198.37 144.457C198.739 144.331 199.146 144.45 199.418 144.749C201.216 146.773 204.127 150.807 207.18 158.152C207.18 158.152 198.544 139.372 201.578 139.81C201.578 139.81 206.397 143.761 211.817 156.414C211.817 156.414 204.191 140.673 207.167 139.72C207.678 139.581 208.195 139.88 208.37 140.415C209.288 143.093 213.176 153.75 219.01 159.891C219.01 159.891 219.715 153.416 219.334 150.258C219.249 149.625 219.663 149.034 220.252 148.95C220.563 148.901 220.873 149.006 221.112 149.221C221.914 150.049 222.665 152.004 222.755 156.414C222.755 156.414 222.503 165.491 223.544 167.605L219.845 174.012L218.745 173.775C217.852 173.539 216.947 173.372 216.041 173.233Z" fill="#F2B3C1"/>
<path d="M220 174.401L218.68 174.116C217.904 173.907 217.05 173.74 215.996 173.58C213.499 173.184 204.799 170.541 197.542 153.068C197.361 152.657 197.257 152.191 197.257 151.725C197.257 151.183 197.406 150.821 197.697 150.654C198.034 150.459 198.473 150.564 199.049 150.974L199.14 151.072L200.187 152.741C199.023 150.348 197.93 147.851 197.374 145.959C197.154 145.187 197.561 144.366 198.273 144.13C198.764 143.97 199.288 144.116 199.644 144.512C200.55 145.535 201.688 146.995 202.956 149.04C201.384 144.937 200.123 140.861 200.828 139.81C201.002 139.546 201.287 139.428 201.617 139.476L201.701 139.49L201.766 139.546C201.908 139.664 204.282 141.653 207.548 147.183C206.513 144.227 205.815 141.417 206.313 140.151C206.462 139.768 206.72 139.511 207.063 139.4C207.742 139.212 208.441 139.615 208.661 140.318C209.664 143.246 213.305 153.082 218.745 159.147C218.913 157.373 219.295 152.783 218.997 150.32C218.894 149.5 219.431 148.734 220.194 148.623C220.601 148.567 221.002 148.693 221.306 148.978C222.393 150.105 222.982 152.602 223.059 156.427C223.059 156.539 222.82 165.456 223.81 167.466L223.894 167.64L219.98 174.422L220 174.401ZM216.087 172.892C217.167 173.059 218.034 173.233 218.823 173.441L219.689 173.629L223.176 167.591C222.199 165.15 222.419 156.775 222.432 156.414C222.341 151.906 221.539 150.153 220.886 149.486C220.731 149.34 220.517 149.27 220.297 149.305C220.097 149.333 219.922 149.444 219.799 149.618C219.676 149.792 219.625 150.007 219.651 150.223C220.032 153.388 219.36 159.676 219.327 159.947L219.25 160.65L218.777 160.156C212.975 154.049 209.107 143.608 208.059 140.554C207.943 140.193 207.581 139.984 207.238 140.075C207.154 140.102 207.012 140.172 206.915 140.429C206.235 142.147 208.428 147.99 210.33 152.386C210.912 153.583 211.507 154.883 212.109 156.288L211.526 156.594C211.313 156.156 210.569 154.598 209.696 152.588C205.511 144.011 201.999 140.666 201.455 140.172C201.391 140.172 201.371 140.207 201.358 140.228C200.621 141.327 203.338 148.54 205.905 154.494C206.423 155.579 206.947 156.754 207.477 158.034L206.895 158.333C206.591 157.666 205.99 156.351 205.278 154.709C202.891 149.729 200.711 146.731 199.185 145.02C198.997 144.811 198.726 144.735 198.467 144.818C198.092 144.944 197.878 145.368 197.995 145.771C199.424 150.689 204.806 160.1 204.864 160.191L204.321 160.566L198.642 151.531C198.253 151.266 198.053 151.245 198.001 151.28C197.969 151.301 197.904 151.419 197.904 151.739C197.904 152.101 197.988 152.463 198.131 152.797C205.259 169.949 213.68 172.53 216.093 172.913L216.087 172.892Z" fill="#002346"/>
<path d="M151.953 32.1285H79.78C74.5251 32.1285 70.2651 36.7095 70.2651 42.3604V150.578C70.2651 156.229 74.5251 160.81 79.78 160.81H151.953C157.208 160.81 161.468 156.229 161.468 150.578V42.3604C161.468 36.7095 157.208 32.1285 151.953 32.1285Z" fill="white"/>
<path d="M151.954 161.157H79.7802C74.3533 161.157 69.9419 156.407 69.9419 150.578V42.3674C69.9419 36.5315 74.3597 31.7877 79.7802 31.7877H151.947C157.374 31.7877 161.785 36.5385 161.785 42.3674V150.578C161.785 156.414 157.368 161.157 151.947 161.157H151.954ZM79.7802 32.4763C74.709 32.4763 70.5887 36.9141 70.5887 42.3604V150.578C70.5887 156.031 74.7155 160.462 79.7802 160.462H151.947C157.018 160.462 161.139 156.024 161.139 150.578V42.3674C161.139 36.9141 157.012 32.4833 151.947 32.4833H79.7802V32.4763Z" fill="#002346"/>
<path d="M147.238 96.8168H84.4953C84.3142 96.8168 84.1719 96.6638 84.1719 96.469C84.1719 96.2743 84.3142 96.1213 84.4953 96.1213H147.238C147.419 96.1213 147.561 96.2743 147.561 96.469C147.561 96.6638 147.419 96.8168 147.238 96.8168Z" fill="#002346"/>
<path d="M147.238 109.337H84.4953C84.3142 109.337 84.1719 109.184 84.1719 108.989C84.1719 108.795 84.3142 108.642 84.4953 108.642H147.238C147.419 108.642 147.561 108.795 147.561 108.989C147.561 109.184 147.419 109.337 147.238 109.337Z" fill="#002346"/>
<path d="M147.238 121.857H84.4953C84.3142 121.857 84.1719 121.704 84.1719 121.51C84.1719 121.315 84.3142 121.162 84.4953 121.162H147.238C147.419 121.162 147.561 121.315 147.561 121.51C147.561 121.704 147.419 121.857 147.238 121.857Z" fill="#002346"/>
<path d="M147.238 135.073H84.4953C84.3142 135.073 84.1719 134.92 84.1719 134.726C84.1719 134.531 84.3142 134.378 84.4953 134.378H147.238C147.419 134.378 147.561 134.531 147.561 134.726C147.561 134.92 147.419 135.073 147.238 135.073Z" fill="#002346"/>
<path d="M147.238 148.289H84.4953C84.3142 148.289 84.1719 148.136 84.1719 147.941C84.1719 147.747 84.3142 147.594 84.4953 147.594H147.238C147.419 147.594 147.561 147.747 147.561 147.941C147.561 148.136 147.419 148.289 147.238 148.289Z" fill="#002346"/>
<path d="M115.866 83.9487C126.226 83.9487 134.625 74.9176 134.625 63.7771C134.625 52.6366 126.226 43.6055 115.866 43.6055C105.507 43.6055 97.1084 52.6366 97.1084 63.7771C97.1084 74.9176 105.507 83.9487 115.866 83.9487Z" fill="#BB86FC"/>
<path d="M115.867 84.2965C105.343 84.2965 96.7852 75.0941 96.7852 63.7771C96.7852 52.4601 105.343 43.2577 115.867 43.2577C126.391 43.2577 134.948 52.4601 134.948 63.7771C134.948 75.0941 126.391 84.2965 115.867 84.2965ZM115.867 43.9533C105.705 43.9533 97.432 52.8497 97.432 63.7771C97.432 74.7046 105.705 83.6009 115.867 83.6009C126.028 83.6009 134.301 74.7046 134.301 63.7771C134.301 52.8497 126.028 43.9533 115.867 43.9533Z" fill="#002346"/>
<path d="M112.632 72.4718C112.555 72.4718 112.477 72.437 112.419 72.3814L105.951 66.1212C105.815 65.989 105.808 65.7734 105.925 65.6273C106.048 65.4882 106.248 65.4743 106.384 65.5995L112.6 71.6162L125.323 55.2007C125.44 55.0546 125.64 55.0338 125.776 55.159C125.912 55.2842 125.931 55.4998 125.815 55.6459L112.878 72.3396C112.82 72.4092 112.742 72.4579 112.652 72.4648C112.645 72.4648 112.639 72.4648 112.626 72.4648L112.632 72.4718Z" fill="#002346"/>
</svg>
