<svg width="81" height="54" viewBox="0 0 81 54" fill="none" xmlns="http://www.w3.org/2000/svg">
<mask id="path-1-outside-1_328_6" maskUnits="userSpaceOnUse" x="-1" y="0" width="44" height="47" fill="black">
<rect fill="white" x="-1" width="44" height="47"/>
<path d="M17.55 1.072C22.286 1.072 26.4247 2.01066 29.966 3.888C33.5073 5.76533 36.238 8.41066 38.158 11.824C40.1207 15.1947 41.102 19.0987 41.102 23.536C41.102 27.9307 40.1207 31.8347 38.158 35.248C36.238 38.6613 33.486 41.3067 29.902 43.184C26.3607 45.0613 22.2433 46 17.55 46H0.718V1.072H17.55ZM16.846 36.528C20.9847 36.528 24.206 35.3973 26.51 33.136C28.814 30.8747 29.966 27.6747 29.966 23.536C29.966 19.3973 28.814 16.176 26.51 13.872C24.206 11.568 20.9847 10.416 16.846 10.416H11.662V36.528H16.846Z"/>
</mask>
<path d="M17.55 1.072C22.286 1.072 26.4247 2.01066 29.966 3.888C33.5073 5.76533 36.238 8.41066 38.158 11.824C40.1207 15.1947 41.102 19.0987 41.102 23.536C41.102 27.9307 40.1207 31.8347 38.158 35.248C36.238 38.6613 33.486 41.3067 29.902 43.184C26.3607 45.0613 22.2433 46 17.55 46H0.718V1.072H17.55ZM16.846 36.528C20.9847 36.528 24.206 35.3973 26.51 33.136C28.814 30.8747 29.966 27.6747 29.966 23.536C29.966 19.3973 28.814 16.176 26.51 13.872C24.206 11.568 20.9847 10.416 16.846 10.416H11.662V36.528H16.846Z" fill="#BB86FC"/>
<path d="M29.966 3.888L30.4344 3.00447L30.4344 3.00447L29.966 3.888ZM38.158 11.824L37.2864 12.3143L37.2901 12.3208L37.2938 12.3272L38.158 11.824ZM38.158 35.248L37.2911 34.7495L37.2864 34.7577L38.158 35.248ZM29.902 43.184L29.438 42.2982L29.4336 42.3005L29.902 43.184ZM0.718 46H-0.282V47H0.718V46ZM0.718 1.072V0.0719986H-0.282V1.072H0.718ZM11.662 10.416V9.416H10.662V10.416H11.662ZM11.662 36.528H10.662V37.528H11.662V36.528ZM17.55 2.072C22.1523 2.072 26.1246 2.98344 29.4976 4.77153L30.4344 3.00447C26.7247 1.03789 22.4197 0.0719986 17.55 0.0719986V2.072ZM29.4976 4.77153C32.8739 6.56134 35.4627 9.07204 37.2864 12.3143L39.0296 11.3337C37.0133 7.74929 34.1408 4.96933 30.4344 3.00447L29.4976 4.77153ZM37.2938 12.3272C39.1558 15.525 40.102 19.2507 40.102 23.536H42.102C42.102 18.9467 41.0855 14.8643 39.0222 11.3208L37.2938 12.3272ZM40.102 23.536C40.102 27.7765 39.1568 31.5049 37.2911 34.7495L39.0249 35.7465C41.0846 32.1644 42.102 28.0848 42.102 23.536H40.102ZM37.2864 34.7577C35.4645 37.9968 32.8568 40.5074 29.438 42.2982L30.366 44.0698C34.1153 42.1059 37.0115 39.3259 39.0296 35.7383L37.2864 34.7577ZM29.4336 42.3005C26.0594 44.0892 22.108 45 17.55 45V47C22.3787 47 26.6619 46.0334 30.3704 44.0675L29.4336 42.3005ZM17.55 45H0.718V47H17.55V45ZM1.718 46V1.072H-0.282V46H1.718ZM0.718 2.072H17.55V0.0719986H0.718V2.072ZM16.846 37.528C21.1695 37.528 24.6708 36.3423 27.2105 33.8497L25.8095 32.4223C23.7412 34.4524 20.7998 35.528 16.846 35.528V37.528ZM27.2105 33.8497C29.7562 31.3511 30.966 27.8636 30.966 23.536H28.966C28.966 27.4857 27.8718 30.3982 25.8095 32.4223L27.2105 33.8497ZM30.966 23.536C30.966 19.2074 29.7559 15.7037 27.2171 13.1649L25.8029 14.5791C27.8721 16.6483 28.966 19.5873 28.966 23.536H30.966ZM27.2171 13.1649C24.6783 10.6261 21.1746 9.416 16.846 9.416V11.416C20.7947 11.416 23.7337 12.5099 25.8029 14.5791L27.2171 13.1649ZM16.846 9.416H11.662V11.416H16.846V9.416ZM10.662 10.416V36.528H12.662V10.416H10.662ZM11.662 37.528H16.846V35.528H11.662V37.528Z" fill="black" mask="url(#path-1-outside-1_328_6)"/>
<mask id="path-3-outside-2_328_6" maskUnits="userSpaceOnUse" x="32" y="-1" width="52" height="56" fill="black">
<rect fill="white" x="32" y="-1" width="52" height="56"/>
<path d="M67.7493 53.68L61.9893 45.936C60.2826 46.2773 58.6186 46.448 56.9973 46.448C52.7733 46.448 48.8906 45.4667 45.3493 43.504C41.8506 41.5413 39.0559 38.8107 36.9653 35.312C34.9172 31.7707 33.8932 27.8027 33.8932 23.408C33.8932 19.0133 34.9172 15.0667 36.9653 11.568C39.0559 8.06933 41.8506 5.33867 45.3493 3.376C48.8906 1.41333 52.7733 0.431999 56.9973 0.431999C61.2213 0.431999 65.0826 1.41333 68.5813 3.376C72.1226 5.33867 74.8959 8.06933 76.9013 11.568C78.9493 15.0667 79.9733 19.0133 79.9733 23.408C79.9733 27.248 79.1839 30.768 77.6053 33.968C76.0693 37.1253 73.9146 39.7493 71.1413 41.84L80.9973 53.68H67.7493ZM45.0933 23.408C45.0933 27.376 46.1599 30.5547 48.2933 32.944C50.4693 35.2907 53.3706 36.464 56.9973 36.464C60.5813 36.464 63.4399 35.2693 65.5732 32.88C67.7493 30.4907 68.8373 27.3333 68.8373 23.408C68.8373 19.44 67.7493 16.2827 65.5732 13.936C63.4399 11.5467 60.5813 10.352 56.9973 10.352C53.3706 10.352 50.4693 11.5253 48.2933 13.872C46.1599 16.2187 45.0933 19.3973 45.0933 23.408Z"/>
</mask>
<path d="M67.7493 53.68L61.9893 45.936C60.2826 46.2773 58.6186 46.448 56.9973 46.448C52.7733 46.448 48.8906 45.4667 45.3493 43.504C41.8506 41.5413 39.0559 38.8107 36.9653 35.312C34.9172 31.7707 33.8932 27.8027 33.8932 23.408C33.8932 19.0133 34.9172 15.0667 36.9653 11.568C39.0559 8.06933 41.8506 5.33867 45.3493 3.376C48.8906 1.41333 52.7733 0.431999 56.9973 0.431999C61.2213 0.431999 65.0826 1.41333 68.5813 3.376C72.1226 5.33867 74.8959 8.06933 76.9013 11.568C78.9493 15.0667 79.9733 19.0133 79.9733 23.408C79.9733 27.248 79.1839 30.768 77.6053 33.968C76.0693 37.1253 73.9146 39.7493 71.1413 41.84L80.9973 53.68H67.7493ZM45.0933 23.408C45.0933 27.376 46.1599 30.5547 48.2933 32.944C50.4693 35.2907 53.3706 36.464 56.9973 36.464C60.5813 36.464 63.4399 35.2693 65.5732 32.88C67.7493 30.4907 68.8373 27.3333 68.8373 23.408C68.8373 19.44 67.7493 16.2827 65.5732 13.936C63.4399 11.5467 60.5813 10.352 56.9973 10.352C53.3706 10.352 50.4693 11.5253 48.2933 13.872C46.1599 16.2187 45.0933 19.3973 45.0933 23.408Z" fill="#03DAC6"/>
<path d="M67.7493 53.68L66.9469 54.2768L67.2468 54.68H67.7493V53.68ZM61.9893 45.936L62.7916 45.3392L62.4138 44.8313L61.7931 44.9554L61.9893 45.936ZM45.3493 43.504L44.86 44.3762L44.8645 44.3787L45.3493 43.504ZM36.9653 35.312L36.0996 35.8126L36.1032 35.8188L36.1068 35.825L36.9653 35.312ZM36.9653 11.568L36.1068 11.055L36.1022 11.0628L36.9653 11.568ZM45.3493 3.376L44.8645 2.50133L44.86 2.50386L45.3493 3.376ZM68.5813 3.376L68.092 4.24815L68.0965 4.25065L68.5813 3.376ZM76.9013 11.568L76.0336 12.0653L76.0382 12.0732L76.9013 11.568ZM77.6053 33.968L76.7084 33.5256L76.706 33.5305L77.6053 33.968ZM71.1413 41.84L70.5393 41.0415L69.7013 41.6732L70.3727 42.4798L71.1413 41.84ZM80.9973 53.68V54.68H83.1308L81.7658 53.0402L80.9973 53.68ZM48.2933 32.944L47.5473 33.61L47.5536 33.617L47.56 33.6239L48.2933 32.944ZM65.5732 32.88L64.8339 32.2066L64.8273 32.214L65.5732 32.88ZM65.5732 13.936L64.8273 14.602L64.8336 14.609L64.84 14.6159L65.5732 13.936ZM48.2933 13.872L47.5599 13.192L47.5533 13.1993L48.2933 13.872ZM68.5516 53.0832L62.7916 45.3392L61.1869 46.5328L66.9469 54.2768L68.5516 53.0832ZM61.7931 44.9554C60.1463 45.2848 58.5481 45.448 56.9973 45.448V47.448C58.6891 47.448 60.4188 47.2699 62.1854 46.9166L61.7931 44.9554ZM56.9973 45.448C52.9352 45.448 49.2205 44.5062 45.834 42.6293L44.8645 44.3787C48.5607 46.4271 52.6113 47.448 56.9973 47.448V45.448ZM45.8385 42.6319C42.4947 40.7561 39.8263 38.1503 37.8237 34.799L36.1068 35.825C38.2856 39.471 41.2065 42.3266 44.86 44.3761L45.8385 42.6319ZM37.8309 34.8114C35.8774 31.4335 34.8932 27.6404 34.8932 23.408H32.8932C32.8932 27.9649 33.9571 32.1078 36.0996 35.8126L37.8309 34.8114ZM34.8932 23.408C34.8932 19.1755 35.8774 15.4058 37.8283 12.0732L36.1022 11.0628C33.9571 14.7275 32.8932 18.8512 32.8932 23.408H34.8932ZM37.8237 12.081C39.8263 8.72968 42.4947 6.12395 45.8385 4.24814L44.86 2.50386C41.2065 4.55339 38.2856 7.40898 36.1068 11.055L37.8237 12.081ZM45.834 4.25065C49.2205 2.37381 52.9352 1.432 56.9973 1.432V-0.568001C52.6113 -0.568001 48.5607 0.45285 44.8645 2.50135L45.834 4.25065ZM56.9973 1.432C61.0593 1.432 64.7508 2.37379 68.092 4.24814L69.0705 2.50386C65.4144 0.452873 61.3832 -0.568001 56.9973 -0.568001V1.432ZM68.0965 4.25065C71.4789 6.12521 74.1195 8.72566 76.0337 12.0653L77.7688 11.0707C75.6723 7.413 72.7663 4.55213 69.066 2.50135L68.0965 4.25065ZM76.0382 12.0732C77.9891 15.4058 78.9733 19.1755 78.9733 23.408H80.9733C80.9733 18.8512 79.9094 14.7275 77.7643 11.0628L76.0382 12.0732ZM78.9733 23.408C78.9733 27.1065 78.2141 30.4735 76.7084 33.5256L78.5021 34.4104C80.1537 31.0625 80.9733 27.3895 80.9733 23.408H78.9733ZM76.706 33.5305C75.2384 36.5473 73.185 39.0471 70.5393 41.0415L71.7432 42.6385C74.6442 40.4516 76.9001 37.7033 78.5045 34.4055L76.706 33.5305ZM70.3727 42.4798L80.2287 54.3198L81.7658 53.0402L71.9098 41.2002L70.3727 42.4798ZM80.9973 52.68H67.7493V54.68H80.9973V52.68ZM44.0933 23.408C44.0933 27.5606 45.2138 30.9965 47.5473 33.61L49.0392 32.278C47.1061 30.1129 46.0933 27.1914 46.0933 23.408H44.0933ZM47.56 33.6239C49.9513 36.2028 53.1332 37.464 56.9973 37.464V35.464C53.608 35.464 50.9872 34.3785 49.0265 32.2641L47.56 33.6239ZM56.9973 37.464C60.8284 37.464 63.9724 36.1744 66.3192 33.546L64.8273 32.214C62.9075 34.3642 60.3341 35.464 56.9973 35.464V37.464ZM66.3126 33.5533C68.6906 30.9421 69.8373 27.5262 69.8373 23.408H67.8373C67.8373 27.1405 66.8079 30.0392 64.8339 32.2067L66.3126 33.5533ZM69.8373 23.408C69.8373 19.2512 68.6927 15.8294 66.3065 13.2561L64.84 14.6159C66.8058 16.736 67.8373 19.6288 67.8373 23.408H69.8373ZM66.3192 13.27C63.9724 10.6416 60.8284 9.352 56.9973 9.352V11.352C60.3341 11.352 62.9075 12.4518 64.8273 14.602L66.3192 13.27ZM56.9973 9.352C53.1332 9.352 49.9513 10.6132 47.56 13.1921L49.0265 14.5519C50.9872 12.4375 53.608 11.352 56.9973 11.352V9.352ZM47.5533 13.1993C45.2118 15.775 44.0933 19.2168 44.0933 23.408H46.0933C46.0933 19.5778 47.1081 16.6623 49.0332 14.5447L47.5533 13.1993Z" fill="black" mask="url(#path-3-outside-2_328_6)"/>
</svg>
