<svg width="93" height="54" viewBox="0 0 93 54" fill="none" xmlns="http://www.w3.org/2000/svg">
<path d="M17.8 1.072C22.536 1.072 26.6747 2.01066 30.216 3.888C33.7573 5.76533 36.488 8.41066 38.408 11.824C40.3707 15.1947 41.352 19.0987 41.352 23.536C41.352 27.9307 40.3707 31.8347 38.408 35.248C36.488 38.6613 33.736 41.3067 30.152 43.184C26.6107 45.0613 22.4933 46 17.8 46H0.968V1.072H17.8ZM17.096 36.528C21.2347 36.528 24.456 35.3973 26.76 33.136C29.064 30.8747 30.216 27.6747 30.216 23.536C30.216 19.3973 29.064 16.176 26.76 13.872C24.456 11.568 21.2347 10.416 17.096 10.416H11.912V36.528H17.096Z" fill="#BB86FC"/>
<path d="M79.468 53.68L73.708 45.936C72.0013 46.2773 70.3373 46.448 68.716 46.448C64.492 46.448 60.6093 45.4667 57.068 43.504C53.5693 41.5413 50.7747 38.8107 48.684 35.312C46.636 31.7707 45.612 27.8027 45.612 23.408C45.612 19.0133 46.636 15.0667 48.684 11.568C50.7747 8.06933 53.5693 5.33867 57.068 3.376C60.6093 1.41333 64.492 0.431999 68.716 0.431999C72.94 0.431999 76.8013 1.41333 80.3 3.376C83.8413 5.33867 86.6147 8.06933 88.62 11.568C90.668 15.0667 91.692 19.0133 91.692 23.408C91.692 27.248 90.9027 30.768 89.324 33.968C87.788 37.1253 85.6333 39.7493 82.86 41.84L92.716 53.68H79.468ZM56.812 23.408C56.812 27.376 57.8787 30.5547 60.012 32.944C62.188 35.2907 65.0893 36.464 68.716 36.464C72.3 36.464 75.1587 35.2693 77.292 32.88C79.468 30.4907 80.556 27.3333 80.556 23.408C80.556 19.44 79.468 16.2827 77.292 13.936C75.1587 11.5467 72.3 10.352 68.716 10.352C65.0893 10.352 62.188 11.5253 60.012 13.872C57.8787 16.2187 56.812 19.3973 56.812 23.408Z" fill="#03DAC6"/>
</svg>
