<svg width="14" height="38" viewBox="0 0 14 38" fill="none" xmlns="http://www.w3.org/2000/svg">
<path d="M5.375 2.6875C5.375 3.40027 5.09185 4.08385 4.58785 4.58785C4.08385 5.09185 3.40027 5.375 2.6875 5.375C1.97473 5.375 1.29116 5.09185 0.787151 4.58785C0.283147 4.08385 0 3.40027 0 2.6875C0 1.97473 0.283147 1.29115 0.787151 0.78715C1.29116 0.283146 1.97473 0 2.6875 0C3.40027 0 4.08385 0.283146 4.58785 0.78715C5.09185 1.29115 5.375 1.97473 5.375 2.6875ZM13.4375 2.6875C13.4375 3.40027 13.1544 4.08385 12.6503 4.58785C12.1463 5.09185 11.4628 5.375 10.75 5.375C10.0372 5.375 9.35365 5.09185 8.84965 4.58785C8.34565 4.08385 8.0625 3.40027 8.0625 2.6875C8.0625 1.97473 8.34565 1.29115 8.84965 0.78715C9.35365 0.283146 10.0372 0 10.75 0C11.4628 0 12.1463 0.283146 12.6503 0.78715C13.1544 1.29115 13.4375 1.97473 13.4375 2.6875ZM5.375 10.75C5.375 11.4628 5.09185 12.1463 4.58785 12.6503C4.08385 13.1544 3.40027 13.4375 2.6875 13.4375C1.97473 13.4375 1.29116 13.1544 0.787151 12.6503C0.283147 12.1463 0 11.4628 0 10.75C0 10.0372 0.283147 9.35365 0.787151 8.84965C1.29116 8.34565 1.97473 8.0625 2.6875 8.0625C3.40027 8.0625 4.08385 8.34565 4.58785 8.84965C5.09185 9.35365 5.375 10.0372 5.375 10.75ZM13.4375 10.75C13.4375 11.4628 13.1544 12.1463 12.6503 12.6503C12.1463 13.1544 11.4628 13.4375 10.75 13.4375C10.0372 13.4375 9.35365 13.1544 8.84965 12.6503C8.34565 12.1463 8.0625 11.4628 8.0625 10.75C8.0625 10.0372 8.34565 9.35365 8.84965 8.84965C9.35365 8.34565 10.0372 8.0625 10.75 8.0625C11.4628 8.0625 12.1463 8.34565 12.6503 8.84965C13.1544 9.35365 13.4375 10.0372 13.4375 10.75ZM5.375 18.8125C5.375 19.5253 5.09185 20.2088 4.58785 20.7128C4.08385 21.2169 3.40027 21.5 2.6875 21.5C1.97473 21.5 1.29116 21.2169 0.787151 20.7128C0.283147 20.2088 0 19.5253 0 18.8125C0 18.0997 0.283147 17.4162 0.787151 16.9122C1.29116 16.4081 1.97473 16.125 2.6875 16.125C3.40027 16.125 4.08385 16.4081 4.58785 16.9122C5.09185 17.4162 5.375 18.0997 5.375 18.8125ZM13.4375 18.8125C13.4375 19.5253 13.1544 20.2088 12.6503 20.7128C12.1463 21.2169 11.4628 21.5 10.75 21.5C10.0372 21.5 9.35365 21.2169 8.84965 20.7128C8.34565 20.2088 8.0625 19.5253 8.0625 18.8125C8.0625 18.0997 8.34565 17.4162 8.84965 16.9122C9.35365 16.4081 10.0372 16.125 10.75 16.125C11.4628 16.125 12.1463 16.4081 12.6503 16.9122C13.1544 17.4162 13.4375 18.0997 13.4375 18.8125ZM5.375 26.875C5.375 27.5878 5.09185 28.2713 4.58785 28.7753C4.08385 29.2794 3.40027 29.5625 2.6875 29.5625C1.97473 29.5625 1.29116 29.2794 0.787151 28.7753C0.283147 28.2713 0 27.5878 0 26.875C0 26.1622 0.283147 25.4787 0.787151 24.9747C1.29116 24.4706 1.97473 24.1875 2.6875 24.1875C3.40027 24.1875 4.08385 24.4706 4.58785 24.9747C5.09185 25.4787 5.375 26.1622 5.375 26.875ZM13.4375 26.875C13.4375 27.5878 13.1544 28.2713 12.6503 28.7753C12.1463 29.2794 11.4628 29.5625 10.75 29.5625C10.0372 29.5625 9.35365 29.2794 8.84965 28.7753C8.34565 28.2713 8.0625 27.5878 8.0625 26.875C8.0625 26.1622 8.34565 25.4787 8.84965 24.9747C9.35365 24.4706 10.0372 24.1875 10.75 24.1875C11.4628 24.1875 12.1463 24.4706 12.6503 24.9747C13.1544 25.4787 13.4375 26.1622 13.4375 26.875ZM5.375 34.9375C5.375 35.6503 5.09185 36.3338 4.58785 36.8378C4.08385 37.3419 3.40027 37.625 2.6875 37.625C1.97473 37.625 1.29116 37.3419 0.787151 36.8378C0.283147 36.3338 0 35.6503 0 34.9375C0 34.2247 0.283147 33.5412 0.787151 33.0372C1.29116 32.5331 1.97473 32.25 2.6875 32.25C3.40027 32.25 4.08385 32.5331 4.58785 33.0372C5.09185 33.5412 5.375 34.2247 5.375 34.9375ZM13.4375 34.9375C13.4375 35.6503 13.1544 36.3338 12.6503 36.8378C12.1463 37.3419 11.4628 37.625 10.75 37.625C10.0372 37.625 9.35365 37.3419 8.84965 36.8378C8.34565 36.3338 8.0625 35.6503 8.0625 34.9375C8.0625 34.2247 8.34565 33.5412 8.84965 33.0372C9.35365 32.5331 10.0372 32.25 10.75 32.25C11.4628 32.25 12.1463 32.5331 12.6503 33.0372C13.1544 33.5412 13.4375 34.2247 13.4375 34.9375Z" fill="#7B7B7B"/>
</svg>
